Khula-wt719.83.ufo
<glyph name="exclam.deva" format="1">
  <advance width="748"/>
  <unicode hex="0021"/>
  <outline>
    <contour>
      <point x="485" y="427" type="line"/>
      <point x="262" y="427" type="line"/>
      <point x="216" y="1316" type="line"/>
      <point x="531" y="1316" type="line"/>
    </contour>
    <contour>
      <point x="213" y="129" type="curve" smooth="yes"/>
      <point x="213" y="228"/>
      <point x="268" y="284"/>
      <point x="373" y="284" type="curve" smooth="yes"/>
      <point x="476" y="284"/>
      <point x="531" y="228"/>
      <point x="531" y="129" type="curve" smooth="yes"/>
      <point x="531" y="33"/>
      <point x="472" y="-24"/>
      <point x="373" y="-24" type="curve" smooth="yes"/>
      <point x="274" y="-24"/>
      <point x="213" y="30"/>
    </contour>
  </outline>
</glyph>
<glyph name="numbersign.deva" format="1">
  <advance width="1209"/>
  <unicode hex="0023"/>
  <outline>
    <contour>
      <point x="918" y="760" type="line"/>
      <point x="879" y="552" type="line"/>
      <point x="1110" y="552" type="line"/>
      <point x="1110" y="365" type="line"/>
      <point x="844" y="365" type="line"/>
      <point x="774" y="0" type="line"/>
      <point x="576" y="0" type="line"/>
      <point x="645" y="365" type="line"/>
      <point x="450" y="365" type="line"/>
      <point x="382" y="0" type="line"/>
      <point x="185" y="0" type="line"/>
      <point x="253" y="365" type="line"/>
      <point x="38" y="365" type="line"/>
      <point x="38" y="552" type="line"/>
      <point x="289" y="552" type="line"/>
      <point x="329" y="760" type="line"/>
      <point x="102" y="760" type="line"/>
      <point x="102" y="950" type="line"/>
      <point x="364" y="950" type="line"/>
      <point x="432" y="1316" type="line"/>
      <point x="631" y="1316" type="line"/>
      <point x="561" y="950" type="line"/>
      <point x="757" y="950" type="line"/>
      <point x="825" y="1316" type="line"/>
      <point x="1023" y="1316" type="line"/>
      <point x="953" y="950" type="line"/>
      <point x="1171" y="950" type="line"/>
      <point x="1171" y="760" type="line"/>
    </contour>
    <contour>
      <point x="486" y="552" type="line"/>
      <point x="680" y="552" type="line"/>
      <point x="720" y="760" type="line"/>
      <point x="525" y="760" type="line"/>
    </contour>
  </outline>
</glyph>
<glyph name="percent.deva" format="1">
  <advance width="1502"/>
  <unicode hex="0025"/>
  <outline>
    <contour>
      <point x="239" y="923" type="curve" smooth="yes"/>
      <point x="239" y="759"/>
      <point x="257" y="678"/>
      <point x="326" y="678" type="curve" smooth="yes"/>
      <point x="389" y="678"/>
      <point x="419" y="759"/>
      <point x="419" y="923" type="curve" smooth="yes"/>
      <point x="419" y="1088"/>
      <point x="395" y="1172"/>
      <point x="326" y="1172" type="curve" smooth="yes"/>
      <point x="257" y="1172"/>
      <point x="239" y="1091"/>
    </contour>
    <contour>
      <point x="615" y="923" type="curve" smooth="yes"/>
      <point x="615" y="646"/>
      <point x="519" y="508"/>
      <point x="326" y="508" type="curve" smooth="yes"/>
      <point x="139" y="508"/>
      <point x="40" y="650"/>
      <point x="40" y="923" type="curve" smooth="yes"/>
      <point x="40" y="1206"/>
      <point x="136" y="1335"/>
      <point x="326" y="1335" type="curve" smooth="yes"/>
      <point x="517" y="1335"/>
      <point x="615" y="1192"/>
    </contour>
    <contour>
      <point x="1083" y="400" type="curve" smooth="yes"/>
      <point x="1083" y="229"/>
      <point x="1101" y="151"/>
      <point x="1173" y="151" type="curve" smooth="yes"/>
      <point x="1243" y="151"/>
      <point x="1267" y="221"/>
      <point x="1267" y="400" type="curve" smooth="yes"/>
      <point x="1267" y="572"/>
      <point x="1243" y="639"/>
      <point x="1173" y="639" type="curve" smooth="yes"/>
      <point x="1101" y="639"/>
      <point x="1083" y="565"/>
    </contour>
    <contour>
      <point x="1463" y="400" type="curve" smooth="yes"/>
      <point x="1463" y="126"/>
      <point x="1362" y="-12"/>
      <point x="1169" y="-12" type="curve" smooth="yes"/>
      <point x="983" y="-12"/>
      <point x="886" y="121"/>
      <point x="886" y="400" type="curve" smooth="yes"/>
      <point x="886" y="674"/>
      <point x="977" y="811"/>
      <point x="1169" y="811" type="curve" smooth="yes"/>
      <point x="1354" y="811"/>
      <point x="1463" y="682"/>
    </contour>
    <contour>
      <point x="1235" y="1316" type="line"/>
      <point x="505" y="0" type="line"/>
      <point x="274" y="0" type="line"/>
      <point x="1004" y="1316" type="line"/>
    </contour>
  </outline>
</glyph>
<glyph name="quotesingle.deva" format="1">
  <advance width="592"/>
  <unicode hex="0027"/>
  <outline>
    <contour>
      <point x="428" y="1316" type="line"/>
      <point x="391" y="841" type="line"/>
      <point x="201" y="841" type="line"/>
      <point x="164" y="1316" type="line"/>
    </contour>
  </outline>
</glyph>
<glyph name="parenright.deva" format="1">
  <advance width="742"/>
  <unicode hex="0029"/>
  <outline>
    <contour>
      <point x="614" y="517" type="curve" smooth="yes"/>
      <point x="614" y="186"/>
      <point x="523" y="-96"/>
      <point x="355" y="-292" type="curve"/>
      <point x="117" y="-292" type="line"/>
      <point x="195" y="-185"/>
      <point x="255" y="-61"/>
      <point x="297" y="79" type="curve" smooth="yes"/>
      <point x="339" y="219"/>
      <point x="359" y="366"/>
      <point x="359" y="519" type="curve" smooth="yes"/>
      <point x="359" y="827"/>
      <point x="277" y="1117"/>
      <point x="115" y="1339" type="curve"/>
      <point x="355" y="1339" type="line"/>
      <point x="525" y="1135"/>
      <point x="614" y="848"/>
    </contour>
  </outline>
</glyph>
<glyph name="period.deva" format="1">
  <advance width="558"/>
  <unicode hex="002E"/>
  <outline>
    <contour>
      <point x="107" y="129" type="curve" smooth="yes"/>
      <point x="107" y="229"/>
      <point x="164" y="284"/>
      <point x="268" y="284" type="curve" smooth="yes"/>
      <point x="368" y="284"/>
      <point x="426" y="229"/>
      <point x="426" y="129" type="curve" smooth="yes"/>
      <point x="426" y="33"/>
      <point x="366" y="-24"/>
      <point x="268" y="-24" type="curve" smooth="yes"/>
      <point x="170" y="-24"/>
      <point x="107" y="29"/>
    </contour>
  </outline>
</glyph>
<glyph name="seven.deva" format="1">
  <advance width="1071"/>
  <unicode hex="0037"/>
  <outline>
    <contour>
      <point x="213" y="0" type="line"/>
      <point x="699" y="1078" type="line"/>
      <point x="75" y="1078" type="line"/>
      <point x="75" y="1315" type="line"/>
      <point x="998" y="1315" type="line"/>
      <point x="998" y="1138" type="line"/>
      <point x="507" y="0" type="line"/>
    </contour>
  </outline>
</glyph>
<glyph name="colon.deva" format="1">
  <advance width="558"/>
  <unicode hex="003A"/>
  <outline>
    <contour>
      <point x="133" y="129" type="curve" smooth="yes"/>
      <point x="133" y="229"/>
      <point x="189" y="284"/>
      <point x="293" y="284" type="curve" smooth="yes"/>
      <point x="394" y="284"/>
      <point x="451" y="229"/>
      <point x="451" y="129" type="curve" smooth="yes"/>
      <point x="451" y="33"/>
      <point x="391" y="-24"/>
      <point x="293" y="-24" type="curve" smooth="yes"/>
      <point x="195" y="-24"/>
      <point x="133" y="29"/>
    </contour>
    <contour>
      <point x="133" y="871" type="curve" smooth="yes"/>
      <point x="133" y="970"/>
      <point x="189" y="1025"/>
      <point x="293" y="1025" type="curve" smooth="yes"/>
      <point x="396" y="1025"/>
      <point x="451" y="970"/>
      <point x="451" y="871" type="curve" smooth="yes"/>
      <point x="451" y="774"/>
      <point x="392" y="718"/>
      <point x="293" y="718" type="curve" smooth="yes"/>
      <point x="193" y="718"/>
      <point x="133" y="771"/>
    </contour>
  </outline>
</glyph>
<glyph name="question.deva" format="1">
  <advance width="1077"/>
  <unicode hex="003F"/>
  <outline>
    <contour>
      <point x="0" y="0" type="line"/>
      <point x="1077" y="0" type="line"/>
      <point x="1077" y="20" type="line"/>
      <point x="0" y="20" type="line"/>
    </contour>
  </outline>
</glyph>
<glyph name="N" format="1">
  <advance width="1479"/>
  <unicode hex="004E"/>
  <outline>
    <contour>
      <point x="1324" y="0" type="line"/>
      <point x="963" y="0" type="line"/>
      <point x="398" y="995" type="line"/>
      <point x="391" y="995" type="line"/>
      <point x="401" y="850"/>
      <point x="406" y="741"/>
      <point x="406" y="666" type="curve" smooth="yes"/>
      <point x="406" y="0" type="line"/>
      <point x="154" y="0" type="line"/>
      <point x="154" y="1316" type="line"/>
      <point x="515" y="1316" type="line"/>
      <point x="1077" y="330" type="line"/>
      <point x="1083" y="330" type="line"/>
      <point x="1075" y="456"/>
      <point x="1071" y="562"/>
      <point x="1071" y="647" type="curve" smooth="yes"/>
      <point x="1071" y="1316" type="line"/>
      <point x="1324" y="1316" type="line"/>
    </contour>
  </outline>
</glyph>
<glyph name="U" format="1">
  <advance width="1376"/>
  <unicode hex="0055"/>
  <outline>
    <contour>
      <point x="1229" y="1316" type="line"/>
      <point x="1229" y="502" type="line"/>
      <point x="1229" y="337"/>
      <point x="1182" y="210"/>
      <point x="1086" y="118" type="curve" smooth="yes"/>
      <point x="992" y="28"/>
      <point x="857" y="-18"/>
      <point x="683" y="-18" type="curve" smooth="yes"/>
      <point x="511" y="-18"/>
      <point x="379" y="27"/>
      <point x="286" y="116" type="curve"/>
      <point x="193" y="206"/>
      <point x="147" y="334"/>
      <point x="147" y="498" type="curve" smooth="yes"/>
      <point x="147" y="1316" type="line"/>
      <point x="429" y="1316" type="line"/>
      <point x="429" y="512" type="line"/>
      <point x="429" y="313"/>
      <point x="519" y="219"/>
      <point x="690" y="219" type="curve" smooth="yes"/>
      <point x="862" y="219"/>
      <point x="947" y="313"/>
      <point x="947" y="514" type="curve" smooth="yes"/>
      <point x="947" y="1316" type="line"/>
    </contour>
  </outline>
</glyph>
<glyph name="Y" format="1">
  <advance width="1154"/>
  <unicode hex="0059"/>
  <outline>
    <contour>
      <point x="577" y="766" type="line"/>
      <point x="849" y="1316" type="line"/>
      <point x="1154" y="1316" type="line"/>
      <point x="719" y="513" type="line"/>
      <point x="719" y="0" type="line"/>
      <point x="435" y="0" type="line"/>
      <point x="435" y="503" type="line"/>
      <point x="0" y="1316" type="line"/>
      <point x="307" y="1316" type="line"/>
    </contour>
  </outline>
</glyph>
<glyph name="bracketleft.deva" format="1">
  <advance width="601"/>
  <unicode hex="005B"/>
  <outline>
    <contour>
      <point x="557" y="-303" type="line"/>
      <point x="121" y="-303" type="line"/>
      <point x="121" y="1339" type="line"/>
      <point x="557" y="1339" type="line"/>
      <point x="557" y="1148" type="line"/>
      <point x="358" y="1148" type="line"/>
      <point x="358" y="-111" type="line"/>
      <point x="557" y="-111" type="line"/>
    </contour>
  </outline>
</glyph>
<glyph name="backslash.deva" format="1">
  <advance width="764"/>
  <unicode hex="005C"/>
  <outline>
    <contour>
      <point x="262" y="1328" type="line"/>
      <point x="753" y="-11" type="line"/>
      <point x="501" y="-11" type="line"/>
      <point x="11" y="1328" type="line"/>
    </contour>
  </outline>
</glyph>
<glyph name="l" format="1">
  <advance width="549"/>
  <unicode hex="006C"/>
  <outline>
    <contour>
      <point x="413" y="0" type="line"/>
      <point x="135" y="0" type="line"/>
      <point x="135" y="1400" type="line"/>
      <point x="413" y="1400" type="line"/>
    </contour>
  </outline>
</glyph>
<glyph name="n" format="1">
  <advance width="1197"/>
  <unicode hex="006E"/>
  <outline>
    <contour>
      <point x="790" y="0" type="line"/>
      <point x="790" y="586" type="line"/>
      <point x="790" y="731"/>
      <point x="740" y="803"/>
      <point x="629" y="803" type="curve" smooth="yes"/>
      <point x="554" y="803"/>
      <point x="499" y="778"/>
      <point x="464" y="728" type="curve" smooth="yes"/>
      <point x="430" y="678"/>
      <point x="413" y="592"/>
      <point x="413" y="472" type="curve" smooth="yes"/>
      <point x="413" y="0" type="line"/>
      <point x="135" y="0" type="line"/>
      <point x="135" y="1008" type="line"/>
      <point x="348" y="1008" type="line"/>
      <point x="385" y="878" type="line"/>
      <point x="401" y="878" type="line"/>
      <point x="461" y="975"/>
      <point x="573" y="1026"/>
      <point x="711" y="1026" type="curve" smooth="yes"/>
      <point x="940" y="1026"/>
      <point x="1068" y="898"/>
      <point x="1068" y="656" type="curve" smooth="yes"/>
      <point x="1068" y="0" type="line"/>
    </contour>
  </outline>
</glyph>
<glyph name="q" format="1">
  <advance width="1165"/>
  <unicode hex="0071"/>
  <outline>
    <contour>
      <point x="0" y="0" type="line"/>
      <point x="1165" y="0" type="line"/>
      <point x="1165" y="20" type="line"/>
      <point x="0" y="20" type="line"/>
    </contour>
  </outline>
</glyph>
<glyph name="x" format="1">
  <advance width="1090"/>
  <unicode hex="0078"/>
  <outline>
    <contour>
      <point x="359" y="515" type="line"/>
      <point x="36" y="1008" type="line"/>
      <point x="352" y="1008" type="line"/>
      <point x="545" y="687" type="line"/>
      <point x="740" y="1008" type="line"/>
      <point x="1056" y="1008" type="line"/>
      <point x="728" y="515" type="line"/>
      <point x="1071" y="0" type="line"/>
      <point x="755" y="0" type="line"/>
      <point x="545" y="343" type="line"/>
      <point x="334" y="0" type="line"/>
      <point x="18" y="0" type="line"/>
    </contour>
  </outline>
</glyph>
<glyph name="asciitilde.deva" format="1">
  <advance width="1047"/>
  <unicode hex="007E"/>
  <outline>
    <contour>
      <point x="285" y="604" type="curve" smooth="yes"/>
      <point x="220" y="604"/>
      <point x="145" y="565"/>
      <point x="76" y="495" type="curve"/>
      <point x="76" y="705" type="line"/>
      <point x="137" y="770"/>
      <point x="214" y="803"/>
      <point x="306" y="803" type="curve" smooth="yes"/>
      <point x="347" y="803"/>
      <point x="385" y="799"/>
      <point x="421" y="790" type="curve" smooth="yes"/>
      <point x="457" y="782"/>
      <point x="502" y="767"/>
      <point x="555" y="745" type="curve" smooth="yes"/>
      <point x="634" y="712"/>
      <point x="699" y="695"/>
      <point x="761" y="695" type="curve" smooth="yes"/>
      <point x="822" y="695"/>
      <point x="904" y="736"/>
      <point x="969" y="804" type="curve"/>
      <point x="969" y="595" type="line"/>
      <point x="907" y="529"/>
      <point x="830" y="496"/>
      <point x="739" y="496" type="curve" smooth="yes"/>
      <point x="680" y="496"/>
      <point x="629" y="506"/>
      <point x="573" y="526" type="curve" smooth="yes"/>
      <point x="534" y="538"/>
      <point x="492" y="553"/>
      <point x="450" y="569" type="curve" smooth="yes"/>
      <point x="390" y="592"/>
      <point x="336" y="604"/>
    </contour>
  </outline>
</glyph>
<glyph name="multiply.deva" format="1">
  <advance width="1047"/>
  <unicode hex="00D7"/>
  <outline>
    <contour>
      <point x="530" y="800" type="line"/>
      <point x="410" y="920" type="line"/>
      <point x="398" y="912" type="line"/>
      <point x="668" y="644" type="line"/>
      <point x="793" y="764" type="line"/>
      <point x="784" y="774" type="line"/>
      <point x="513" y="503" type="line"/>
      <point x="634" y="380" type="line"/>
      <point x="644" y="389" type="line"/>
      <point x="371" y="660" type="line"/>
      <point x="250" y="539" type="line"/>
      <point x="263" y="530" type="line"/>
    </contour>
  </outline>
</glyph>
<glyph name="tadeva" format="1">
  <advance width="1295"/>
  <unicode hex="0924"/>
  <outline>
    <contour>
      <point x="866" y="902" type="line"/>
      <point x="866" y="663" type="line"/>
      <point x="633" y="663" type="line"/>
      <point x="444" y="663"/>
      <point x="375" y="569"/>
      <point x="375" y="449" type="curve" smooth="yes"/>
      <point x="375" y="344"/>
      <point x="421" y="229"/>
      <point x="535" y="45" type="curve"/>
      <point x="296" y="-26" type="line"/>
      <point x="162" y="181"/>
      <point x="100" y="363"/>
      <point x="101" y="520" type="curve" smooth="yes"/>
      <point x="104" y="736"/>
      <point x="240" y="902"/>
      <point x="563" y="902" type="curve" smooth="yes"/>
    </contour>
    <contour>
      <point x="-30" y="1096" type="line"/>
      <point x="-30" y="1289" type="line"/>
      <point x="1325" y="1289" type="line"/>
      <point x="1325" y="1096" type="line"/>
    </contour>
    <contour>
      <point x="804" y="1133" type="line"/>
      <point x="1090" y="1133" type="line"/>
      <point x="1090" y="0" type="line"/>
      <point x="804" y="0" type="line"/>
    </contour>
    <contour>
      <point x="804" y="1289" type="move" name="top"/>
    </contour>
  </outline>
</glyph>
<glyph name="thadeva" format="1">
  <advance width="1448"/>
  <unicode hex="0925"/>
  <outline>
    <contour>
      <point x="758" y="944" type="curve" smooth="yes"/>
      <point x="758" y="735"/>
      <point x="593" y="601"/>
      <point x="377" y="537" type="curve"/>
      <point x="380" y="635" type="line"/>
      <point x="455" y="533"/>
      <point x="554" y="478"/>
      <point x="666" y="478" type="curve" smooth="yes"/>
      <point x="812" y="478"/>
      <point x="942" y="549"/>
      <point x="1012" y="704" type="curve"/>
      <point x="1012" y="313" type="line"/>
      <point x="938" y="267"/>
      <point x="863" y="246"/>
      <point x="746" y="246" type="curve" smooth="yes"/>
      <point x="497" y="246"/>
      <point x="243" y="400"/>
      <point x="111" y="668" type="curve"/>
      <point x="111" y="674" type="line"/>
      <point x="347" y="725"/>
      <point x="514" y="831"/>
      <point x="514" y="975" type="curve" smooth="yes"/>
      <point x="514" y="1071"/>
      <point x="452" y="1131"/>
      <point x="380" y="1131" type="curve" smooth="yes"/>
      <point x="320" y="1131"/>
      <point x="288" y="1090"/>
      <point x="288" y="1034" type="curve" smooth="yes"/>
      <point x="288" y="966"/>
      <point x="351" y="901"/>
      <point x="502" y="863" type="curve"/>
      <point x="416" y="733" type="line"/>
      <point x="148" y="795"/>
      <point x="38" y="929"/>
      <point x="38" y="1081" type="curve" smooth="yes"/>
      <point x="38" y="1214"/>
      <point x="135" y="1332"/>
      <point x="331" y="1332" type="curve" smooth="yes"/>
      <point x="597" y="1332"/>
      <point x="758" y="1150"/>
    </contour>
    <contour>
      <point x="957" y="1133" type="line"/>
      <point x="1243" y="1133" type="line"/>
      <point x="1243" y="0" type="line"/>
      <point x="957" y="0" type="line"/>
    </contour>
    <contour>
      <point x="1478" y="1096" type="line"/>
      <point x="868" y="1096" type="line"/>
      <point x="868" y="1289" type="line"/>
      <point x="1478" y="1289" type="line"/>
    </contour>
    <contour>
      <point x="957" y="1289" type="move" name="top"/>
    </contour>
  </outline>
</glyph>
<glyph name="shadeva" format="1">
  <advance width="1625"/>
  <unicode hex="0936"/>
  <outline>
    <contour>
      <point x="568" y="453" type="line"/>
      <point x="883" y="108" type="line"/>
      <point x="715" y="-44" type="line"/>
      <point x="356" y="344" type="line"/>
    </contour>
    <contour>
      <point x="273" y="272" type="curve" smooth="yes"/>
      <point x="154" y="272"/>
      <point x="108" y="344"/>
      <point x="108" y="437" type="curve" smooth="yes"/>
      <point x="108" y="544"/>
      <point x="180" y="650"/>
      <point x="283" y="650" type="curve" smooth="yes"/>
      <point x="358" y="650"/>
      <point x="417" y="607"/>
      <point x="494" y="528" type="curve"/>
      <point x="386" y="539" type="line"/>
      <point x="573" y="594"/>
      <point x="683" y="723"/>
      <point x="683" y="896" type="curve" smooth="yes"/>
      <point x="683" y="1012"/>
      <point x="599" y="1106"/>
      <point x="489" y="1106" type="curve" smooth="yes"/>
      <point x="421" y="1106"/>
      <point x="381" y="1062"/>
      <point x="381" y="1008" type="curve" smooth="yes"/>
      <point x="381" y="922"/>
      <point x="476" y="851"/>
      <point x="748" y="848" type="curve"/>
      <point x="681" y="670" type="line"/>
      <point x="278" y="698"/>
      <point x="136" y="859"/>
      <point x="136" y="1038" type="curve" smooth="yes"/>
      <point x="136" y="1185"/>
      <point x="244" y="1312"/>
      <point x="462" y="1312" type="curve" smooth="yes"/>
      <point x="730" y="1312"/>
      <point x="920" y="1135"/>
      <point x="920" y="861" type="curve" smooth="yes"/>
      <point x="920" y="514"/>
      <point x="534" y="272"/>
    </contour>
    <contour>
      <point x="1134" y="1133" type="line"/>
      <point x="1421" y="1133" type="line"/>
      <point x="1421" y="0" type="line"/>
      <point x="1134" y="0" type="line"/>
    </contour>
    <contour>
      <point x="1655" y="1096" type="line"/>
      <point x="980" y="1096" type="line"/>
      <point x="980" y="1289" type="line"/>
      <point x="1655" y="1289" type="line"/>
    </contour>
    <contour>
      <point x="1134" y="1289" type="move" name="top"/>
    </contour>
  </outline>
</glyph>
<glyph name="oevowelsigndevaKSH" format="1">
  <advance width="0"/>
  <unicode hex="093A"/>
  <outline>
    <component base="udattadeva" yOffset="-259"/>
    <contour>
      <point x="-493" y="1288" type="move" name="_top"/>
    </contour>
  </outline>
</glyph>
<glyph name="iivowelsigndeva" format="1">
  <advance width="650"/>
  <unicode hex="0940"/>
  <outline>
    <contour>
      <point x="160" y="1239" type="line"/>
      <point x="73" y="1454"/>
      <point x="-64" y="1564"/>
      <point x="-185" y="1564" type="curve" smooth="yes"/>
      <point x="-268" y="1564"/>
      <point x="-309" y="1509"/>
      <point x="-309" y="1438" type="curve" smooth="yes"/>
      <point x="-309" y="1372"/>
      <point x="-276" y="1313"/>
      <point x="-224" y="1253" type="curve"/>
      <point x="-509" y="1253" type="line"/>
      <point x="-552" y="1329"/>
      <point x="-582" y="1405"/>
      <point x="-582" y="1505" type="curve" smooth="yes"/>
      <point x="-582" y="1653"/>
      <point x="-479" y="1808"/>
      <point x="-240" y="1808" type="curve" smooth="yes"/>
      <point x="48" y="1808"/>
      <point x="301" y="1613"/>
      <point x="446" y="1239" type="curve"/>
    </contour>
    <component base="aavowelsigndeva"/>
  </outline>
</glyph>
<glyph name="uvowelsigndeva" format="1">
  <advance width="0"/>
  <unicode hex="0941"/>
  <outline>
    <contour>
      <point x="-699" y="-75" type="line"/>
      <point x="-606" y="-12"/>
      <point x="-505" y="36"/>
      <point x="-355" y="36" type="curve" smooth="yes"/>
      <point x="-131" y="36"/>
      <point x="-1" y="-105"/>
      <point x="-1" y="-298" type="curve" smooth="yes"/>
      <point x="-1" y="-495"/>
      <point x="-159" y="-623"/>
      <point x="-379" y="-623" type="curve" smooth="yes"/>
      <point x="-602" y="-623"/>
      <point x="-809" y="-544"/>
      <point x="-1027" y="-370" type="curve"/>
      <point x="-939" y="-181" type="line"/>
      <point x="-732" y="-354"/>
      <point x="-573" y="-415"/>
      <point x="-439" y="-415" type="curve" smooth="yes"/>
      <point x="-305" y="-415"/>
      <point x="-243" y="-359"/>
      <point x="-243" y="-285" type="curve" smooth="yes"/>
      <point x="-243" y="-221"/>
      <point x="-295" y="-175"/>
      <point x="-371" y="-175" type="curve" smooth="yes"/>
      <point x="-441" y="-175"/>
      <point x="-516" y="-208"/>
      <point x="-594" y="-264" type="curve"/>
    </contour>
    <contour>
      <point x="-492" y="0" type="move" name="_btm"/>
    </contour>
  </outline>
</glyph>
<glyph name="prishthaevowelsign" format="1">
  <advance width="650"/>
  <unicode hex="094E"/>
  <outline>
    <contour>
      <point x="160" y="1133" type="line"/>
      <point x="448" y="1133" type="line"/>
      <point x="448" y="0" type="line"/>
      <point x="160" y="0" type="line"/>
    </contour>
    <contour>
      <point x="680" y="1096" type="line"/>
      <point x="160" y="1096" type="line"/>
      <point x="160" y="1289" type="line"/>
      <point x="680" y="1289" type="line"/>
    </contour>
  </outline>
</glyph>
<glyph name="awvowelsigndevaKSH" format="1">
  <advance width="650"/>
  <unicode hex="094F"/>
  <outline>
    <contour>
      <point x="235" y="1217" type="line"/>
      <point x="235" y="1505" type="line"/>
      <point x="235" y="1564"/>
      <point x="207" y="1600"/>
      <point x="121" y="1600" type="curve" smooth="yes"/>
      <point x="61" y="1600"/>
      <point x="11" y="1568"/>
      <point x="-96" y="1568" type="curve" smooth="yes"/>
      <point x="-217" y="1568"/>
      <point x="-303" y="1621"/>
      <point x="-380" y="1715" type="curve"/>
      <point x="-291" y="1853" type="line"/>
      <point x="-213" y="1777"/>
      <point x="-159" y="1753"/>
      <point x="-102" y="1753" type="curve" smooth="yes"/>
      <point x="-15" y="1753"/>
      <point x="63" y="1797"/>
      <point x="193" y="1797" type="curve" smooth="yes"/>
      <point x="343" y="1797"/>
      <point x="446" y="1699"/>
      <point x="446" y="1535" type="curve" smooth="yes"/>
      <point x="446" y="1217" type="line"/>
    </contour>
    <contour>
      <point x="96" y="1175" type="line"/>
      <point x="40" y="1292" type="line"/>
      <point x="9" y="1356"/>
      <point x="-31" y="1392"/>
      <point x="-108" y="1392" type="curve" smooth="yes"/>
      <point x="-178" y="1392"/>
      <point x="-238" y="1361"/>
      <point x="-352" y="1361" type="curve" smooth="yes"/>
      <point x="-484" y="1361"/>
      <point x="-587" y="1420"/>
      <point x="-677" y="1517" type="curve"/>
      <point x="-583" y="1646" type="line"/>
      <point x="-497" y="1569"/>
      <point x="-430" y="1542"/>
      <point x="-359" y="1542" type="curve" smooth="yes"/>
      <point x="-256" y="1542"/>
      <point x="-175" y="1585"/>
      <point x="-75" y="1585" type="curve" smooth="yes"/>
      <point x="107" y="1585"/>
      <point x="174" y="1524"/>
      <point x="249" y="1336" type="curve" smooth="yes"/>
      <point x="318" y="1175" type="line"/>
    </contour>
    <component base="aavowelsigndeva"/>
  </outline>
</glyph>
<glyph name="fivedeva" format="1">
  <advance width="1218"/>
  <unicode hex="096B"/>
  <outline>
    <contour>
      <point x="379" y="668" type="curve" smooth="yes"/>
      <point x="379" y="533"/>
      <point x="466" y="453"/>
      <point x="580" y="453" type="curve" smooth="yes"/>
      <point x="685" y="453"/>
      <point x="769" y="502"/>
      <point x="857" y="591" type="curve"/>
      <point x="725" y="435" type="line"/>
      <point x="674" y="519"/>
      <point x="658" y="565"/>
      <point x="658" y="614" type="curve" smooth="yes"/>
      <point x="658" y="678"/>
      <point x="706" y="743"/>
      <point x="838" y="743" type="curve" smooth="yes"/>
      <point x="1016" y="743"/>
      <point x="1127" y="662"/>
      <point x="1127" y="571" type="curve" smooth="yes"/>
      <point x="1127" y="426"/>
      <point x="910" y="227"/>
      <point x="601" y="227" type="curve" smooth="yes"/>
      <point x="311" y="227"/>
      <point x="104" y="428"/>
      <point x="104" y="686" type="curve" smooth="yes"/>
      <point x="104" y="909"/>
      <point x="221" y="1131"/>
      <point x="458" y="1309" type="curve"/>
      <point x="713" y="1173" type="line"/>
      <point x="478" y="998"/>
      <point x="379" y="827"/>
    </contour>
    <contour>
      <point x="728" y="448" type="line"/>
      <point x="960" y="545" type="line"/>
      <point x="1262" y="-69" type="line"/>
      <point x="1029" y="-166" type="line"/>
    </contour>
  </outline>
</glyph>
<glyph name="sevendeva" format="1">
  <advance width="1288"/>
  <unicode hex="096D"/>
  <outline>
    <contour>
      <point x="1048" y="475" type="curve"/>
      <point x="1047" y="474"/>
      <point x="973" y="294"/>
      <point x="973" y="294" type="curve"/>
      <point x="626" y="374"/>
      <point x="468" y="537"/>
      <point x="468" y="746" type="curve" smooth="yes"/>
      <point x="468" y="915"/>
      <point x="577" y="1049"/>
      <point x="784" y="1049" type="curve" smooth="yes"/>
      <point x="1018" y="1049"/>
      <point x="1214" y="864"/>
      <point x="1214" y="584" type="curve" smooth="yes"/>
      <point x="1214" y="286"/>
      <point x="1015" y="53"/>
      <point x="690" y="53" type="curve" smooth="yes"/>
      <point x="361" y="53"/>
      <point x="99" y="300"/>
      <point x="99" y="744" type="curve" smooth="yes"/>
      <point x="99" y="930"/>
      <point x="140" y="1133"/>
      <point x="199" y="1283" type="curve"/>
      <point x="457" y="1206" type="line"/>
      <point x="387" y="1032"/>
      <point x="350" y="841"/>
      <point x="350" y="667" type="curve" smooth="yes"/>
      <point x="350" y="420"/>
      <point x="486" y="281"/>
      <point x="667" y="281" type="curve" smooth="yes"/>
      <point x="844" y="281"/>
      <point x="962" y="447"/>
      <point x="962" y="625" type="curve" smooth="yes"/>
      <point x="962" y="733"/>
      <point x="895" y="815"/>
      <point x="822" y="815" type="curve" smooth="yes"/>
      <point x="757" y="815"/>
      <point x="721" y="772"/>
      <point x="721" y="706" type="curve" smooth="yes"/>
      <point x="721" y="609"/>
      <point x="798" y="518"/>
    </contour>
  </outline>
</glyph>
<glyph name="eightdeva" format="1">
  <advance width="1088"/>
  <unicode hex="096E"/>
  <outline>
    <contour>
      <point x="653" y="1300" type="line"/>
      <point x="888" y="1115" type="line"/>
      <point x="484" y="660" type="line"/>
      <point x="401" y="567"/>
      <point x="380" y="511"/>
      <point x="380" y="444" type="curve" smooth="yes"/>
      <point x="380" y="366"/>
      <point x="453" y="298"/>
      <point x="551" y="298" type="curve" smooth="yes"/>
      <point x="662" y="299"/>
      <point x="776" y="345"/>
      <point x="951" y="482" type="curve"/>
      <point x="1101" y="234" type="line"/>
      <point x="922" y="99"/>
      <point x="776" y="51"/>
      <point x="591" y="51" type="curve" smooth="yes"/>
      <point x="288" y="51"/>
      <point x="87" y="240"/>
      <point x="87" y="481" type="curve" smooth="yes"/>
      <point x="87" y="601"/>
      <point x="125" y="709"/>
      <point x="239" y="838" type="curve" smooth="yes"/>
    </contour>
  </outline>
</glyph>
<glyph name="endash.deva" format="1">
  <advance width="996"/>
  <unicode hex="2013"/>
  <outline>
    <contour>
      <point x="91" y="392" type="line"/>
      <point x="91" y="599" type="line"/>
      <point x="873" y="599" type="line"/>
      <point x="873" y="392" type="line"/>
    </contour>
  </outline>
</glyph>
<glyph name="quoteright.deva" format="1">
  <advance width="-386"/>
  <unicode hex="2019"/>
  <outline>
    <contour>
      <point x="-19" y="1316" type="line"/>
      <point x="1" y="1292" type="line"/>
      <point x="46" y="1439"/>
      <point x="84" y="1526"/>
      <point x="117" y="1548" type="curve" smooth="yes"/>
      <point x="28" y="1304"/>
      <point x="55" y="1075"/>
      <point x="-44" y="865" type="curve"/>
      <point x="-79" y="746"/>
      <point x="-459" y="593"/>
      <point x="-499" y="411" type="curve"/>
      <point x="-409" y="758"/>
      <point x="-344" y="1058"/>
      <point x="-306" y="1316" type="curve"/>
    </contour>
  </outline>
</glyph>
<glyph name="minus.deva" format="1">
  <advance width="1047"/>
  <unicode hex="2212"/>
  <outline>
    <contour>
      <point x="76" y="551" type="line"/>
      <point x="76" y="749" type="line"/>
      <point x="969" y="749" type="line"/>
      <point x="969" y="551" type="line"/>
    </contour>
  </outline>
</glyph>
<glyph name="baprehalfdeva" format="1">
  <advance width="705"/>
  <outline>
    <contour>
      <point x="735" y="1096" type="line"/>
      <point x="-30" y="1096" type="line"/>
      <point x="-30" y="1289" type="line"/>
      <point x="735" y="1289" type="line"/>
    </contour>
    <contour>
      <point x="767" y="436" type="line"/>
      <point x="650" y="347" type="line"/>
      <point x="323" y="720" type="line"/>
      <point x="441" y="809" type="line"/>
    </contour>
    <contour>
      <point x="762" y="587" type="curve" smooth="yes"/>
      <point x="762" y="661"/>
      <point x="674" y="742"/>
      <point x="542" y="742" type="curve" smooth="yes"/>
      <point x="404" y="742"/>
      <point x="333" y="674"/>
      <point x="333" y="572" type="curve" smooth="yes"/>
      <point x="333" y="480"/>
      <point x="408" y="406"/>
      <point x="516" y="406" type="curve" smooth="yes"/>
      <point x="674" y="406"/>
      <point x="762" y="489"/>
    </contour>
    <contour>
      <point x="1003" y="571" type="curve" smooth="yes"/>
      <point x="1003" y="362"/>
      <point x="808" y="189"/>
      <point x="547" y="189" type="curve" smooth="yes"/>
      <point x="255" y="189"/>
      <point x="76" y="390"/>
      <point x="76" y="616" type="curve" smooth="yes"/>
      <point x="76" y="812"/>
      <point x="236" y="948"/>
      <point x="476" y="948" type="curve" smooth="yes"/>
      <point x="830" y="948"/>
      <point x="1003" y="755"/>
    </contour>
  </outline>
</glyph>
<glyph name="haradeva" format="1">
  <advance width="1274"/>
  <outline>
    <contour>
      <point x="946" y="411" type="line"/>
      <point x="764" y="44" type="line"/>
      <point x="561" y="114" type="line"/>
      <point x="737" y="483" type="line"/>
    </contour>
    <contour>
      <point x="804" y="1114" type="line"/>
      <point x="1090" y="1114" type="line"/>
      <point x="1090" y="745" type="line"/>
      <point x="500" y="745" type="line"/>
      <point x="395" y="745"/>
      <point x="352" y="702"/>
      <point x="352" y="644" type="curve" smooth="yes"/>
      <point x="352" y="586"/>
      <point x="402" y="545"/>
      <point x="499" y="520" type="curve"/>
      <point x="313" y="371" type="line"/>
      <point x="153" y="462"/>
      <point x="76" y="569"/>
      <point x="76" y="699" type="curve" smooth="yes"/>
      <point x="76" y="832"/>
      <point x="179" y="939"/>
      <point x="396" y="939" type="curve" smooth="yes"/>
      <point x="843" y="939" type="line"/>
      <point x="804" y="890" type="line"/>
    </contour>
    <contour>
      <point x="696" y="591" type="curve" smooth="yes"/>
      <point x="1017" y="591"/>
      <point x="1197" y="439"/>
      <point x="1197" y="253" type="curve" smooth="yes"/>
      <point x="1197" y="173"/>
      <point x="1181" y="117"/>
      <point x="1148" y="45" type="curve"/>
      <point x="923" y="89" type="line"/>
      <point x="948" y="135"/>
      <point x="963" y="186"/>
      <point x="963" y="239" type="curve" smooth="yes"/>
      <point x="963" y="327"/>
      <point x="900" y="394"/>
      <point x="726" y="395" type="curve" smooth="yes"/>
      <point x="535" y="395"/>
      <point x="449" y="279"/>
      <point x="449" y="168" type="curve" smooth="yes"/>
      <point x="449" y="26"/>
      <point x="565" y="-77"/>
      <point x="1015" y="-132" type="curve"/>
      <point x="941" y="-327" type="line"/>
      <point x="415" y="-266"/>
      <point x="180" y="-78"/>
      <point x="180" y="199" type="curve" smooth="yes"/>
      <point x="180" y="410"/>
      <point x="367" y="591"/>
    </contour>
    <contour>
      <point x="1304" y="1096" type="line"/>
      <point x="-30" y="1096" type="line"/>
      <point x="-30" y="1289" type="line"/>
      <point x="1304" y="1289" type="line"/>
    </contour>
    <contour>
      <point x="802" y="1289" type="move" name="top"/>
    </contour>
  </outline>
</glyph>
<glyph name="harauudeva" format="1">
  <advance width="1274"/>
  <outline>
    <contour>
      <point x="946" y="411" type="line"/>
      <point x="764" y="44" type="line"/>
      <point x="561" y="114" type="line"/>
      <point x="737" y="483" type="line"/>
    </contour>
    <contour>
      <point x="696" y="591" type="curve" smooth="yes"/>
      <point x="1017" y="591"/>
      <point x="1197" y="439"/>
      <point x="1197" y="253" type="curve" smooth="yes"/>
      <point x="1197" y="173"/>
      <point x="1181" y="117"/>
      <point x="1148" y="45" type="curve"/>
      <point x="923" y="89" type="line"/>
      <point x="948" y="135"/>
      <point x="963" y="186"/>
      <point x="963" y="239" type="curve" smooth="yes"/>
      <point x="963" y="327"/>
      <point x="900" y="394"/>
      <point x="726" y="395" type="curve" smooth="yes"/>
      <point x="535" y="395"/>
      <point x="449" y="279"/>
      <point x="449" y="168" type="curve" smooth="yes"/>
      <point x="449" y="25"/>
      <point x="565" y="-50"/>
      <point x="854" y="-109" type="curve"/>
      <point x="796" y="-302" type="line"/>
      <point x="417" y="-242"/>
      <point x="180" y="-75"/>
      <point x="180" y="199" type="curve" smooth="yes"/>
      <point x="180" y="410"/>
      <point x="367" y="591"/>
    </contour>
    <contour>
      <point x="804" y="1114" type="line"/>
      <point x="1090" y="1114" type="line"/>
      <point x="1090" y="745" type="line"/>
      <point x="500" y="745" type="line"/>
      <point x="395" y="745"/>
      <point x="352" y="702"/>
      <point x="352" y="644" type="curve" smooth="yes"/>
      <point x="352" y="586"/>
      <point x="402" y="545"/>
      <point x="499" y="520" type="curve"/>
      <point x="313" y="371" type="line"/>
      <point x="153" y="462"/>
      <point x="76" y="569"/>
      <point x="76" y="699" type="curve" smooth="yes"/>
      <point x="76" y="832"/>
      <point x="179" y="939"/>
      <point x="396" y="939" type="curve" smooth="yes"/>
      <point x="843" y="939" type="line"/>
      <point x="804" y="890" type="line"/>
    </contour>
    <contour>
      <point x="1304" y="1096" type="line"/>
      <point x="-30" y="1096" type="line"/>
      <point x="-30" y="1289" type="line"/>
      <point x="1304" y="1289" type="line"/>
    </contour>
    <component base="uuvowelsigndeva" xOffset="1019" yOffset="-99"/>
  </outline>
</glyph>
<glyph name="harrvocalicdeva" format="1">
  <advance width="1276"/>
  <outline>
    <contour>
      <point x="1190" y="149" type="curve"/>
      <point x="1048" y="149" type="line"/>
      <point x="962" y="149"/>
      <point x="918" y="105"/>
      <point x="918" y="59" type="curve" smooth="yes"/>
      <point x="918" y="16"/>
      <point x="956" y="-14"/>
      <point x="1025" y="-14" type="curve" smooth="yes"/>
      <point x="1077" y="-14"/>
      <point x="1115" y="-8"/>
      <point x="1203" y="16" type="curve"/>
      <point x="1235" y="-133" type="line"/>
      <point x="1148" y="-153"/>
      <point x="1089" y="-160"/>
      <point x="1018" y="-160" type="curve" smooth="yes"/>
      <point x="800" y="-160"/>
      <point x="674" y="-55"/>
      <point x="674" y="75" type="curve" smooth="yes"/>
      <point x="674" y="194"/>
      <point x="798" y="289"/>
      <point x="981" y="289" type="curve" smooth="yes"/>
      <point x="993" y="289"/>
      <point x="1001" y="289"/>
      <point x="1011" y="289" type="curve"/>
      <point x="960" y="256" type="line"/>
      <point x="960" y="329"/>
      <point x="877" y="386"/>
      <point x="707" y="386" type="curve" smooth="yes"/>
      <point x="525" y="386"/>
      <point x="423" y="279"/>
      <point x="423" y="143" type="curve" smooth="yes"/>
      <point x="423" y="0"/>
      <point x="507" y="-125"/>
      <point x="755" y="-287" type="curve"/>
      <point x="612" y="-432" type="line"/>
      <point x="328" y="-260"/>
      <point x="172" y="-55"/>
      <point x="172" y="180" type="curve" smooth="yes"/>
      <point x="172" y="401"/>
      <point x="359" y="591"/>
      <point x="689" y="591" type="curve" smooth="yes"/>
      <point x="1006" y="591"/>
      <point x="1195" y="422"/>
      <point x="1195" y="249" type="curve" smooth="yes"/>
      <point x="1195" y="216"/>
      <point x="1193" y="172"/>
    </contour>
    <contour>
      <point x="1306" y="1096" type="line"/>
      <point x="-30" y="1096" type="line"/>
      <point x="-30" y="1289" type="line"/>
      <point x="1306" y="1289" type="line"/>
    </contour>
    <contour>
      <point x="711" y="1114" type="line"/>
      <point x="997" y="1114" type="line"/>
      <point x="997" y="745" type="line"/>
      <point x="490" y="745" type="line"/>
      <point x="384" y="745"/>
      <point x="343" y="702"/>
      <point x="343" y="644" type="curve" smooth="yes"/>
      <point x="343" y="584"/>
      <point x="395" y="544"/>
      <point x="491" y="519" type="curve"/>
      <point x="306" y="370" type="line"/>
      <point x="145" y="461"/>
      <point x="67" y="567"/>
      <point x="67" y="699" type="curve" smooth="yes"/>
      <point x="67" y="832"/>
      <point x="170" y="939"/>
      <point x="387" y="939" type="curve" smooth="yes"/>
      <point x="750" y="939" type="line"/>
      <point x="711" y="890" type="line"/>
    </contour>
    <contour>
      <point x="1308" y="-402" type="line"/>
      <point x="1247" y="-423"/>
      <point x="1171" y="-442"/>
      <point x="1090" y="-442" type="curve" smooth="yes"/>
      <point x="910" y="-442"/>
      <point x="819" y="-339"/>
      <point x="819" y="-238" type="curve" smooth="yes"/>
      <point x="819" y="-129"/>
      <point x="918" y="-28"/>
      <point x="1123" y="-28" type="curve"/>
      <point x="1160" y="-131" type="line"/>
      <point x="1058" y="-133"/>
      <point x="1006" y="-181"/>
      <point x="1006" y="-231" type="curve" smooth="yes"/>
      <point x="1006" y="-271"/>
      <point x="1037" y="-303"/>
      <point x="1110" y="-303" type="curve" smooth="yes"/>
      <point x="1162" y="-303"/>
      <point x="1206" y="-293"/>
      <point x="1278" y="-266" type="curve"/>
    </contour>
  </outline>
</glyph>
<glyph name="harvocalicdeva" format="1">
  <advance width="1276"/>
  <outline>
    <contour>
      <point x="1306" y="1096" type="line"/>
      <point x="-30" y="1096" type="line"/>
      <point x="-30" y="1289" type="line"/>
      <point x="1306" y="1289" type="line"/>
    </contour>
    <contour>
      <point x="711" y="1114" type="line"/>
      <point x="997" y="1114" type="line"/>
      <point x="997" y="745" type="line"/>
      <point x="488" y="745" type="line"/>
      <point x="383" y="745"/>
      <point x="343" y="701"/>
      <point x="343" y="643" type="curve" smooth="yes"/>
      <point x="343" y="585"/>
      <point x="395" y="544"/>
      <point x="491" y="519" type="curve"/>
      <point x="306" y="370" type="line"/>
      <point x="145" y="461"/>
      <point x="67" y="567"/>
      <point x="67" y="699" type="curve" smooth="yes"/>
      <point x="67" y="832"/>
      <point x="169" y="939"/>
      <point x="387" y="939" type="curve" smooth="yes"/>
      <point x="750" y="939" type="line"/>
      <point x="711" y="890" type="line"/>
    </contour>
    <contour>
      <point x="689" y="591" type="curve" smooth="yes"/>
      <point x="1006" y="591"/>
      <point x="1195" y="421"/>
      <point x="1195" y="249" type="curve" smooth="yes"/>
      <point x="1195" y="216"/>
      <point x="1193" y="172"/>
      <point x="1190" y="149" type="curve"/>
      <point x="1060" y="149" type="line"/>
      <point x="955" y="150"/>
      <point x="904" y="101"/>
      <point x="904" y="40" type="curve" smooth="yes"/>
      <point x="904" y="-11"/>
      <point x="947" y="-47"/>
      <point x="1022" y="-47" type="curve" smooth="yes"/>
      <point x="1079" y="-47"/>
      <point x="1127" y="-36"/>
      <point x="1210" y="-6" type="curve"/>
      <point x="1241" y="-170" type="line"/>
      <point x="1138" y="-199"/>
      <point x="1090" y="-204"/>
      <point x="1009" y="-204" type="curve" smooth="yes"/>
      <point x="832" y="-204"/>
      <point x="667" y="-109"/>
      <point x="667" y="58" type="curve" smooth="yes"/>
      <point x="667" y="202"/>
      <point x="799" y="289"/>
      <point x="985" y="289" type="curve" smooth="yes"/>
      <point x="996" y="289"/>
      <point x="1007" y="289"/>
      <point x="1016" y="289" type="curve"/>
      <point x="960" y="258" type="line"/>
      <point x="960" y="326"/>
      <point x="883" y="386"/>
      <point x="707" y="386" type="curve" smooth="yes"/>
      <point x="523" y="386"/>
      <point x="423" y="277"/>
      <point x="423" y="142" type="curve" smooth="yes"/>
      <point x="423" y="0"/>
      <point x="507" y="-125"/>
      <point x="755" y="-287" type="curve"/>
      <point x="612" y="-432" type="line"/>
      <point x="329" y="-260"/>
      <point x="172" y="-57"/>
      <point x="172" y="179" type="curve" smooth="yes"/>
      <point x="172" y="400"/>
      <point x="359" y="591"/>
    </contour>
  </outline>
</glyph>
<glyph name="iivowelsign2deva" format="1">
  <advance width="650"/>
  <outline>
    <contour>
      <point x="158" y="1239" type="line"/>
      <point x="76" y="1450"/>
      <point x="-25" y="1559"/>
      <point x="-138" y="1559" type="curve" smooth="yes"/>
      <point x="-211" y="1559"/>
      <point x="-247" y="1511"/>
      <point x="-247" y="1443" type="curve" smooth="yes"/>
      <point x="-247" y="1384"/>
      <point x="-216" y="1312"/>
      <point x="-167" y="1253" type="curve"/>
      <point x="-445" y="1253" type="line"/>
      <point x="-486" y="1324"/>
      <point x="-510" y="1419"/>
      <point x="-510" y="1508" type="curve" smooth="yes"/>
      <point x="-510" y="1651"/>
      <point x="-399" y="1799"/>
      <point x="-184" y="1799" type="curve" smooth="yes"/>
      <point x="89" y="1799"/>
      <point x="306" y="1615"/>
      <point x="445" y="1239" type="curve"/>
    </contour>
    <component base="aavowelsigndeva"/>
  </outline>
</glyph>
<glyph name="iivowelsign3deva" format="1">
  <advance width="650"/>
  <outline>
    <contour>
      <point x="125" y="1239" type="line"/>
      <point x="-118" y="1450"/>
      <point x="-361" y="1558"/>
      <point x="-564" y="1558" type="curve" smooth="yes"/>
      <point x="-707" y="1558"/>
      <point x="-766" y="1483"/>
      <point x="-766" y="1402" type="curve" smooth="yes"/>
      <point x="-766" y="1344"/>
      <point x="-747" y="1297"/>
      <point x="-716" y="1253" type="curve"/>
      <point x="-994" y="1253" type="line"/>
      <point x="-1025" y="1327"/>
      <point x="-1039" y="1391"/>
      <point x="-1039" y="1465" type="curve" smooth="yes"/>
      <point x="-1039" y="1638"/>
      <point x="-910" y="1802"/>
      <point x="-616" y="1802" type="curve" smooth="yes"/>
      <point x="-264" y="1802"/>
      <point x="122" y="1619"/>
      <point x="469" y="1239" type="curve"/>
    </contour>
    <component base="aavowelsigndeva"/>
  </outline>
</glyph>
<glyph name="ivowelsign07deva" format="1">
  <advance width="650"/>
  <outline>
    <contour>
      <point x="160" y="1254" type="line"/>
      <point x="160" y="1344" type="line"/>
      <point x="160" y="1587"/>
      <point x="316" y="1802"/>
      <point x="906" y="1802" type="curve" smooth="yes"/>
      <point x="1356" y="1802"/>
      <point x="1925" y="1744"/>
      <point x="2423" y="1657" type="curve"/>
      <point x="2380" y="1450" type="line"/>
      <point x="1900" y="1526"/>
      <point x="1311" y="1567"/>
      <point x="960" y="1567" type="curve" smooth="yes"/>
      <point x="537" y="1566"/>
      <point x="446" y="1447"/>
      <point x="446" y="1320" type="curve" smooth="yes"/>
      <point x="446" y="1254" type="line"/>
    </contour>
    <component base="aavowelsigndeva"/>
  </outline>
</glyph>
<glyph name="janyadeva" format="1">
  <advance width="1574"/>
  <outline>
    <contour>
      <point x="469" y="139" type="curve"/>
      <point x="485" y="117" type="line"/>
      <point x="734" y="-193" type="line"/>
      <point x="545" y="-287" type="line"/>
      <point x="259" y="65" type="line"/>
      <point x="368" y="2" type="line"/>
      <point x="139" y="2"/>
      <point x="53" y="74"/>
      <point x="53" y="157" type="curve" smooth="yes"/>
      <point x="53" y="238"/>
      <point x="127" y="309"/>
      <point x="224" y="309" type="curve" smooth="yes"/>
      <point x="305" y="309"/>
      <point x="372" y="262"/>
    </contour>
    <contour>
      <point x="-30" y="1096" type="line"/>
      <point x="-30" y="1289" type="line"/>
      <point x="1604" y="1289" type="line"/>
      <point x="1604" y="1096" type="line"/>
    </contour>
    <contour>
      <point x="488" y="762" type="line"/>
      <point x="412" y="762"/>
      <point x="374" y="742"/>
      <point x="374" y="699" type="curve" smooth="yes"/>
      <point x="374" y="655"/>
      <point x="417" y="629"/>
      <point x="546" y="604" type="curve" smooth="yes"/>
      <point x="740" y="568"/>
      <point x="850" y="465"/>
      <point x="850" y="312" type="curve" smooth="yes"/>
      <point x="850" y="157"/>
      <point x="694" y="4"/>
      <point x="409" y="4" type="curve"/>
      <point x="378" y="192" type="line"/>
      <point x="521" y="192"/>
      <point x="597" y="255"/>
      <point x="597" y="312" type="curve" smooth="yes"/>
      <point x="597" y="373"/>
      <point x="555" y="406"/>
      <point x="379" y="453" type="curve" smooth="yes"/>
      <point x="198" y="501"/>
      <point x="110" y="604"/>
      <point x="110" y="718" type="curve" smooth="yes"/>
      <point x="110" y="855"/>
      <point x="209" y="950"/>
      <point x="406" y="950" type="curve" smooth="yes"/>
      <point x="1108" y="950" type="line"/>
      <point x="1108" y="762" type="line"/>
    </contour>
    <contour>
      <point x="1075" y="1136" type="line"/>
      <point x="1363" y="1136" type="line"/>
      <point x="1363" y="0" type="line"/>
      <point x="1075" y="0" type="line"/>
    </contour>
    <contour>
      <point x="1075" y="1289" type="move" name="top"/>
    </contour>
  </outline>
</glyph>
<glyph name="jasadeva" format="1">
  <advance width="2614"/>
  <outline>
    <contour>
      <point x="735" y="637" type="line"/>
      <point x="761" y="712" type="line"/>
      <point x="887" y="640"/>
      <point x="963" y="529"/>
      <point x="963" y="381" type="curve" smooth="yes"/>
      <point x="963" y="208"/>
      <point x="832" y="66"/>
      <point x="621" y="66" type="curve" smooth="yes"/>
      <point x="401" y="66"/>
      <point x="200" y="195"/>
      <point x="28" y="450" type="curve"/>
      <point x="158" y="639" type="line"/>
      <point x="339" y="384"/>
      <point x="462" y="311"/>
      <point x="567" y="311" type="curve" smooth="yes"/>
      <point x="654" y="311"/>
      <point x="711" y="365"/>
      <point x="711" y="445" type="curve" smooth="yes"/>
      <point x="711" y="536"/>
      <point x="629" y="627"/>
      <point x="448" y="671" type="curve"/>
      <point x="448" y="872" type="line"/>
      <point x="1211" y="872" type="line"/>
      <point x="1175" y="637" type="line"/>
    </contour>
    <contour>
      <point x="-30" y="1097" type="line"/>
      <point x="-30" y="1289" type="line"/>
      <point x="1178" y="1289" type="line"/>
      <point x="1178" y="1097" type="line"/>
    </contour>
    <component base="sadeva" xOffset="1057"/>
  </outline>
</glyph>
<glyph name="jhadevaNEP" format="1">
  <advance width="1983"/>
  <outline>
    <contour>
      <point x="1289" y="1096" type="line"/>
      <point x="1289" y="1289" type="line"/>
      <point x="2013" y="1289" type="line"/>
      <point x="2013" y="1096" type="line"/>
    </contour>
    <contour>
      <point x="1230" y="404" type="curve"/>
      <point x="1218" y="782" type="line"/>
      <point x="1268" y="803"/>
      <point x="1352" y="825"/>
      <point x="1439" y="825" type="curve" smooth="yes"/>
      <point x="1694" y="825"/>
      <point x="1869" y="674"/>
      <point x="1869" y="453" type="curve" smooth="yes"/>
      <point x="1869" y="331"/>
      <point x="1820" y="212"/>
      <point x="1743" y="112" type="curve"/>
      <point x="1499" y="199" type="line"/>
      <point x="1567" y="295"/>
      <point x="1607" y="384"/>
      <point x="1607" y="470" type="curve" smooth="yes"/>
      <point x="1607" y="544"/>
      <point x="1561" y="592"/>
      <point x="1479" y="592" type="curve" smooth="yes"/>
      <point x="1395" y="592"/>
      <point x="1309" y="529"/>
    </contour>
    <component base="bhadeva"/>
    <contour>
      <point x="997" y="0" type="move" name="btm"/>
    </contour>
    <contour>
      <point x="997" y="1289" type="move" name="top"/>
    </contour>
  </outline>
</glyph>
<glyph name="jhaprehalfdevaNEP" format="1">
  <advance width="1574"/>
  <outline>
    <contour>
      <point x="1211" y="398" type="curve"/>
      <point x="1200" y="773" type="line"/>
      <point x="1247" y="798"/>
      <point x="1331" y="825"/>
      <point x="1448" y="825" type="curve" smooth="yes"/>
      <point x="1613" y="825"/>
      <point x="1761" y="771"/>
      <point x="1888" y="653" type="curve"/>
      <point x="1838" y="460" type="line"/>
      <point x="1719" y="558"/>
      <point x="1614" y="593"/>
      <point x="1507" y="593" type="curve" smooth="yes"/>
      <point x="1379" y="593"/>
      <point x="1285" y="528"/>
    </contour>
    <contour>
      <point x="1212" y="1096" type="line"/>
      <point x="1212" y="1289" type="line"/>
      <point x="1604" y="1289" type="line"/>
      <point x="1604" y="1096" type="line"/>
    </contour>
    <component base="bhadeva"/>
  </outline>
</glyph>
<glyph name="lajadeva" format="1">
  <advance width="2872"/>
  <outline>
    <contour>
      <point x="969" y="623" type="curve"/>
      <point x="792" y="483" type="line"/>
      <point x="712" y="595"/>
      <point x="630" y="648"/>
      <point x="537" y="648" type="curve" smooth="yes"/>
      <point x="412" y="648"/>
      <point x="344" y="565"/>
      <point x="344" y="461" type="curve" smooth="yes"/>
      <point x="344" y="348"/>
      <point x="414" y="243"/>
      <point x="543" y="111" type="curve"/>
      <point x="347" y="-3" type="line"/>
      <point x="203" y="140"/>
      <point x="84" y="335"/>
      <point x="84" y="518" type="curve" smooth="yes"/>
      <point x="84" y="728"/>
      <point x="233" y="889"/>
      <point x="477" y="889" type="curve" smooth="yes"/>
      <point x="680" y="889"/>
      <point x="846" y="791"/>
    </contour>
    <contour>
      <point x="-30" y="1096" type="line"/>
      <point x="-30" y="1289" type="line"/>
      <point x="1225" y="1289" type="line"/>
      <point x="1225" y="1096" type="line"/>
    </contour>
    <contour>
      <point x="822" y="269" type="curve"/>
      <point x="594" y="377" type="line"/>
      <point x="709" y="658"/>
      <point x="883" y="831"/>
      <point x="1076" y="831" type="curve" smooth="yes"/>
      <point x="1211" y="831"/>
      <point x="1312" y="761"/>
      <point x="1392" y="647" type="curve"/>
      <point x="1255" y="456" type="line"/>
      <point x="1202" y="537"/>
      <point x="1156" y="567"/>
      <point x="1101" y="567" type="curve" smooth="yes"/>
      <point x="1009" y="567"/>
      <point x="918" y="488"/>
    </contour>
    <component base="jadeva" xOffset="1226"/>
  </outline>
</glyph>
<glyph name="laraprehalfdeva" format="1">
  <advance width="1071"/>
  <outline>
    <contour>
      <point x="-30" y="1096" type="line"/>
      <point x="-30" y="1289" type="line"/>
      <point x="1101" y="1289" type="line"/>
      <point x="1101" y="1096" type="line"/>
    </contour>
    <contour>
      <point x="986" y="615" type="curve"/>
      <point x="809" y="475" type="line"/>
      <point x="724" y="603"/>
      <point x="637" y="661"/>
      <point x="540" y="661" type="curve" smooth="yes"/>
      <point x="416" y="661"/>
      <point x="344" y="576"/>
      <point x="344" y="469" type="curve" smooth="yes"/>
      <point x="344" y="346"/>
      <point x="416" y="244"/>
      <point x="548" y="111" type="curve"/>
      <point x="350" y="-3" type="line"/>
      <point x="203" y="142"/>
      <point x="84" y="336"/>
      <point x="84" y="524" type="curve" smooth="yes"/>
      <point x="84" y="738"/>
      <point x="236" y="903"/>
      <point x="481" y="903" type="curve" smooth="yes"/>
      <point x="689" y="903"/>
      <point x="861" y="800"/>
    </contour>
    <contour>
      <point x="1291" y="838" type="line"/>
      <point x="1356" y="591" type="line"/>
      <point x="722" y="216" type="line"/>
      <point x="565" y="405" type="line"/>
    </contour>
    <contour>
      <point x="1471" y="291" type="line"/>
      <point x="937" y="-133" type="line"/>
      <point x="786" y="23" type="line"/>
      <point x="1328" y="464" type="line"/>
    </contour>
  </outline>
</glyph>
<glyph name="nabhadeva" format="1">
  <advance width="1967"/>
  <outline>
    <contour>
      <point x="905" y="682" type="line"/>
      <point x="905" y="446" type="line"/>
      <point x="385" y="446" type="line"/>
      <point x="435" y="497" type="line"/>
      <point x="435" y="256" type="line"/>
      <point x="435" y="180"/>
      <point x="397" y="136"/>
      <point x="339" y="136" type="curve" smooth="yes"/>
      <point x="300" y="136"/>
      <point x="259" y="156"/>
      <point x="212" y="203" type="curve" smooth="yes"/>
      <point x="149" y="267"/>
      <point x="76" y="412"/>
      <point x="76" y="537" type="curve" smooth="yes"/>
      <point x="76" y="630"/>
      <point x="124" y="682"/>
      <point x="235" y="682" type="curve" smooth="yes"/>
    </contour>
    <contour>
      <point x="-30" y="1096" type="line"/>
      <point x="-30" y="1289" type="line"/>
      <point x="602" y="1289" type="line"/>
      <point x="602" y="1096" type="line"/>
    </contour>
    <component base="bhadeva" xOffset="479"/>
  </outline>
</glyph>
<glyph name="rauudeva" format="1">
  <advance width="1599"/>
  <outline>
    <contour>
      <point x="570" y="1096" type="line"/>
      <point x="570" y="1289" type="line"/>
      <point x="1629" y="1289" type="line"/>
      <point x="1629" y="1096" type="line"/>
    </contour>
    <contour>
      <point x="1116" y="268" type="line"/>
      <point x="831" y="270"/>
      <point x="667" y="441"/>
      <point x="667" y="639" type="curve" smooth="yes"/>
      <point x="667" y="792"/>
      <point x="785" y="911"/>
      <point x="957" y="911" type="curve" smooth="yes"/>
      <point x="1202" y="911"/>
      <point x="1408" y="764"/>
      <point x="1539" y="329" type="curve"/>
      <point x="1376" y="240" type="line"/>
      <point x="1252" y="592"/>
      <point x="1128" y="682"/>
      <point x="1011" y="682" type="curve" smooth="yes"/>
      <point x="943" y="682"/>
      <point x="901" y="637"/>
      <point x="901" y="584" type="curve" smooth="yes"/>
      <point x="901" y="521"/>
      <point x="962" y="465"/>
      <point x="1140" y="463" type="curve"/>
    </contour>
    <component base="radeva"/>
    <contour>
      <point x="524" y="1289" type="move" name="top"/>
    </contour>
  </outline>
</glyph>
<glyph name="saradeva" format="1">
  <advance width="1583"/>
  <outline>
    <contour>
      <point x="1247" y="510" type="line"/>
      <point x="883" y="98" type="line"/>
      <point x="701" y="252" type="line"/>
      <point x="1079" y="655" type="line"/>
    </contour>
    <contour>
      <point x="736" y="85" type="line"/>
      <point x="529" y="-51" type="line"/>
      <point x="97" y="598" type="line"/>
      <point x="57" y="658"/>
      <point x="32" y="702"/>
      <point x="32" y="752" type="curve" smooth="yes"/>
      <point x="32" y="816"/>
      <point x="79" y="873"/>
      <point x="155" y="873" type="curve" smooth="yes"/>
      <point x="211" y="873"/>
      <point x="260" y="844"/>
      <point x="288" y="797" type="curve" smooth="yes"/>
      <point x="391" y="639" type="line"/>
      <point x="378" y="618" type="line"/>
    </contour>
    <contour>
      <point x="252" y="687" type="line"/>
      <point x="394" y="730"/>
      <point x="452" y="804"/>
      <point x="452" y="949" type="curve" smooth="yes"/>
      <point x="452" y="1147" type="line"/>
      <point x="738" y="1147" type="line"/>
      <point x="738" y="905" type="line"/>
      <point x="738" y="717"/>
      <point x="626" y="533"/>
      <point x="406" y="463" type="curve"/>
    </contour>
    <contour>
      <point x="-30" y="1096" type="line"/>
      <point x="-30" y="1289" type="line"/>
      <point x="1613" y="1289" type="line"/>
      <point x="1613" y="1096" type="line"/>
    </contour>
    <contour>
      <point x="497" y="557" type="curve"/>
      <point x="612" y="753" type="line"/>
      <point x="693" y="721"/>
      <point x="788" y="703"/>
      <point x="860" y="703" type="curve" smooth="yes"/>
      <point x="954" y="703"/>
      <point x="1037" y="714"/>
      <point x="1118" y="732" type="curve"/>
      <point x="1118" y="510" type="line"/>
      <point x="1061" y="494"/>
      <point x="988" y="484"/>
      <point x="905" y="484" type="curve" smooth="yes"/>
      <point x="796" y="484"/>
      <point x="657" y="504"/>
    </contour>
    <contour>
      <point x="1092" y="1133" type="line"/>
      <point x="1379" y="1133" type="line"/>
      <point x="1379" y="0" type="line"/>
      <point x="1092" y="0" type="line"/>
    </contour>
    <contour>
      <point x="1092" y="1289" type="move" name="top"/>
    </contour>
  </outline>
</glyph>
<glyph name="shacaprehalfdeva" format="1">
  <advance width="1015"/>
  <outline>
    <contour>
      <point x="186" y="372" type="line"/>
      <point x="61" y="579" type="line"/>
      <point x="346" y="731" type="line"/>
      <point x="575" y="852"/>
      <point x="638" y="922"/>
      <point x="638" y="1000" type="curve" smooth="yes"/>
      <point x="638" y="1063"/>
      <point x="595" y="1109"/>
      <point x="530" y="1109" type="curve" smooth="yes"/>
      <point x="453" y="1109"/>
      <point x="414" y="1063"/>
      <point x="414" y="1002" type="curve" smooth="yes"/>
      <point x="414" y="885"/>
      <point x="596" y="780"/>
      <point x="1210" y="707" type="curve"/>
      <point x="1237" y="497" type="line"/>
      <point x="406" y="561"/>
      <point x="163" y="797"/>
      <point x="163" y="1038" type="curve" smooth="yes"/>
      <point x="163" y="1184"/>
      <point x="281" y="1320"/>
      <point x="508" y="1320" type="curve" smooth="yes"/>
      <point x="742" y="1320"/>
      <point x="873" y="1172"/>
      <point x="873" y="995" type="curve" smooth="yes"/>
      <point x="873" y="818"/>
      <point x="750" y="674"/>
      <point x="469" y="524" type="curve" smooth="yes"/>
    </contour>
    <contour>
      <point x="373" y="14" type="line"/>
      <point x="259" y="186" type="line"/>
      <point x="793" y="481" type="line"/>
      <point x="902" y="314" type="line"/>
    </contour>
    <contour>
      <point x="1140" y="532" type="curve"/>
      <point x="1224" y="652" type="line"/>
      <point x="1354" y="499" type="line"/>
      <point x="1337" y="71"/>
      <point x="1125" y="-167"/>
      <point x="848" y="-167" type="curve" smooth="yes"/>
      <point x="666" y="-167"/>
      <point x="530" y="-41"/>
      <point x="530" y="128" type="curve" smooth="yes"/>
      <point x="530" y="244"/>
      <point x="598" y="354"/>
      <point x="760" y="433" type="curve"/>
      <point x="863" y="292" type="line"/>
      <point x="787" y="254"/>
      <point x="754" y="194"/>
      <point x="754" y="140" type="curve" smooth="yes"/>
      <point x="754" y="80"/>
      <point x="791" y="40"/>
      <point x="856" y="40" type="curve" smooth="yes"/>
      <point x="979" y="40"/>
      <point x="1114" y="181"/>
    </contour>
  </outline>
</glyph>
<glyph name="taradeva" format="1">
  <advance width="1225"/>
  <outline>
    <contour>
      <point x="901" y="406" type="line"/>
      <point x="275" y="96" type="line"/>
      <point x="149" y="314" type="line"/>
      <point x="785" y="615" type="line"/>
    </contour>
    <contour>
      <point x="-30" y="1096" type="line"/>
      <point x="-30" y="1289" type="line"/>
      <point x="1255" y="1289" type="line"/>
      <point x="1255" y="1096" type="line"/>
    </contour>
    <contour>
      <point x="45" y="859" type="line"/>
      <point x="122" y="897"/>
      <point x="226" y="926"/>
      <point x="318" y="926" type="curve" smooth="yes"/>
      <point x="430" y="926"/>
      <point x="540" y="892"/>
      <point x="666" y="815" type="curve" smooth="yes"/>
      <point x="776" y="746" type="line"/>
      <point x="776" y="481" type="line"/>
      <point x="642" y="572" type="line"/>
      <point x="532" y="646"/>
      <point x="434" y="680"/>
      <point x="354" y="680" type="curve" smooth="yes"/>
      <point x="278" y="680"/>
      <point x="186" y="652"/>
      <point x="115" y="612" type="curve"/>
    </contour>
    <contour>
      <point x="735" y="1133" type="line"/>
      <point x="1023" y="1133" type="line"/>
      <point x="1023" y="0" type="line"/>
      <point x="735" y="0" type="line"/>
    </contour>
  </outline>
</glyph>
<glyph name="tathadeva" format="1">
  <advance width="2102"/>
  <outline>
    <contour>
      <point x="1004" y="744" type="curve"/>
      <point x="889" y="508" type="line"/>
      <point x="773" y="599"/>
      <point x="696" y="635"/>
      <point x="583" y="635" type="curve" smooth="yes"/>
      <point x="431" y="635"/>
      <point x="370" y="541"/>
      <point x="370" y="435" type="curve" smooth="yes"/>
      <point x="370" y="335"/>
      <point x="423" y="218"/>
      <point x="529" y="45" type="curve"/>
      <point x="298" y="-26" type="line"/>
      <point x="170" y="171"/>
      <point x="101" y="352"/>
      <point x="102" y="506" type="curve" smooth="yes"/>
      <point x="104" y="710"/>
      <point x="233" y="877"/>
      <point x="515" y="877" type="curve" smooth="yes"/>
      <point x="694" y="877"/>
      <point x="861" y="819"/>
    </contour>
    <contour>
      <point x="-30" y="1096" type="line"/>
      <point x="-30" y="1289" type="line"/>
      <point x="763" y="1289" type="line"/>
      <point x="763" y="1096" type="line"/>
    </contour>
    <component base="thadeva" xOffset="654"/>
  </outline>
</glyph>
<glyph name="ttattadeva" format="1">
  <advance width="1195"/>
  <outline>
    <contour>
      <point x="605" y="243" type="line"/>
      <point x="892" y="243" type="line"/>
      <point x="892" y="-127" type="line"/>
      <point x="621" y="-127" type="line"/>
      <point x="446" y="-127"/>
      <point x="372" y="-204"/>
      <point x="372" y="-285" type="curve" smooth="yes"/>
      <point x="372" y="-369"/>
      <point x="446" y="-436"/>
      <point x="610" y="-436" type="curve" smooth="yes"/>
      <point x="715" y="-436"/>
      <point x="833" y="-416"/>
      <point x="972" y="-368" type="curve"/>
      <point x="1027" y="-587" type="line"/>
      <point x="900" y="-632"/>
      <point x="788" y="-654"/>
      <point x="638" y="-654" type="curve" smooth="yes"/>
      <point x="276" y="-654"/>
      <point x="87" y="-469"/>
      <point x="87" y="-257" type="curve" smooth="yes"/>
      <point x="87" y="-68"/>
      <point x="238" y="79"/>
      <point x="533" y="79" type="curve" smooth="yes"/>
      <point x="645" y="79" type="line"/>
      <point x="605" y="39" type="line"/>
    </contour>
    <contour>
      <point x="694" y="1134" type="line"/>
      <point x="980" y="1134" type="line"/>
      <point x="980" y="746" type="line"/>
      <point x="639" y="746" type="line"/>
      <point x="428" y="746"/>
      <point x="365" y="646"/>
      <point x="365" y="559" type="curve" smooth="yes"/>
      <point x="365" y="471"/>
      <point x="458" y="391"/>
      <point x="645" y="391" type="curve" smooth="yes"/>
      <point x="753" y="391"/>
      <point x="867" y="413"/>
      <point x="1006" y="460" type="curve"/>
      <point x="1061" y="240" type="line"/>
      <point x="933" y="195"/>
      <point x="826" y="172"/>
      <point x="674" y="172" type="curve" smooth="yes"/>
      <point x="282" y="172"/>
      <point x="77" y="356"/>
      <point x="77" y="594" type="curve" smooth="yes"/>
      <point x="77" y="803"/>
      <point x="243" y="958"/>
      <point x="555" y="958" type="curve" smooth="yes"/>
      <point x="733" y="958" type="line"/>
      <point x="694" y="918" type="line"/>
    </contour>
    <contour>
      <point x="1225" y="1096" type="line"/>
      <point x="-30" y="1096" type="line"/>
      <point x="-30" y="1289" type="line"/>
      <point x="1225" y="1289" type="line"/>
    </contour>
    <contour>
      <point x="487" y="-653" type="move" name="btm"/>
    </contour>
    <contour>
      <point x="652" y="1289" type="move" name="top"/>
    </contour>
  </outline>
</glyph>
